<?xml version="1.0" encoding="UTF-8" standalone="no"?>
<svg width="30px" height="28px" viewBox="0 0 30 28" version="1.1" xmlns="http://www.w3.org/2000/svg" xmlns:xlink="http://www.w3.org/1999/xlink">
    <!-- Generator: Sketch 43.2 (39069) - http://www.bohemiancoding.com/sketch -->
    <title>Page 1</title>
    <desc>Created with Sketch.</desc>
    <defs>
        <polygon id="path-1" points="0 27.9426781 29.9320082 27.9426781 29.9320082 0 0 0"></polygon>
    </defs>
    <g id="Page-1" stroke="none" stroke-width="1" fill="none" fill-rule="evenodd">
        <g id="Desktop-HD" transform="translate(-17.000000, -13.000000)">
            <g id="Page-1" transform="translate(17.000000, 13.000000)">
                <path d="M5.5862582,24.3329494 L5.5862582,23.4803313 L5.5862582,23.4791296 L1.92675,23.4803313 L1.92675,24.3329494 L4.20134016,24.3329494 L3.36478279,25.3741167 L1.36412705,25.3741167 L1.36412705,23.9073013 C1.36412705,23.6721253 1.1012582,23.4803313 0.776913934,23.4803313 C0.453184426,23.4803313 0.191913934,23.6721253 0.191913934,23.9073013 L0.191913934,27.9426661 L1.36412705,27.9426661 L1.36412705,26.0559708 L3.10695492,26.0559708 L4.81228279,27.9426661 L6.14187295,27.9426661 L4.30523361,25.9055159 L5.5862582,24.3329494 Z" id="Fill-1" fill="#FEFEFE"></path>
                <mask id="mask-2" fill="white">
                    <use xlink:href="#path-1"></use>
                </mask>
                <g id="Clip-4"></g>
                <polygon id="Fill-3" fill="#FEFEFE" mask="url(#mask-2)" points="13.065123 24.3329614 16.4048361 24.3329614 16.4048361 23.4803433 13.065123 23.4803433"></polygon>
                <polygon id="Fill-5" fill="#FEFEFE" mask="url(#mask-2)" points="13.065123 26.0533391 16.1069262 26.0533391 16.1069262 25.3728069 13.065123 25.3728069"></polygon>
                <path d="M12.4963033,23.9073133 C12.4963033,23.6721373 12.2330656,23.4803433 11.909459,23.4803433 C11.5876967,23.4803433 11.3248279,23.6721373 11.3248279,23.9073133 L11.3248279,25.3760515 L7.79306557,25.3760515 L7.79306557,23.9073133 C7.79306557,23.6721373 7.53118033,23.4803433 7.20745082,23.4803433 C6.88310656,23.4803433 6.61962295,23.6721373 6.61962295,23.9073133 L6.61962295,27.9426781 L7.79306557,27.9426781 L7.79306557,26.0533391 L11.3248279,26.0533391 L11.3248279,27.9426781 L12.4963033,27.9426781 L16.5697869,27.9426781 L16.5697869,27.0907811 L12.4963033,27.0907811 L12.4963033,23.9073133 Z" id="Fill-6" fill="#FEFEFE" mask="url(#mask-2)"></path>
                <path d="M23.2051475,23.5281356 C22.9417869,23.5281356 22.724041,23.6543159 22.6491639,23.8276034 L22.6470738,23.8276034 L21.619082,25.372891 L23.791377,25.372891 L23.791377,23.9551056 C23.791377,23.7187279 23.5286311,23.5281356 23.2051475,23.5281356" id="Fill-7" fill="#FEFEFE" mask="url(#mask-2)"></path>
                <path d="M18.1944221,23.8276275 L18.1918402,23.8276275 C18.1168402,23.6543399 17.8984795,23.5281597 17.6357336,23.5281597 C17.3116352,23.5281597 17.049627,23.7187519 17.049627,23.9551296 L17.049627,25.3690695 L19.2205697,25.3715931 L18.1944221,23.8276275 Z" id="Fill-8" fill="#FEFEFE" mask="url(#mask-2)"></path>
                <polygon id="Fill-9" fill="#FEFEFE" mask="url(#mask-2)" points="17.0495902 27.9426781 18.2210656 27.9426781 18.2210656 26.0494936 17.0495902 26.0494936"></polygon>
                <polygon id="Fill-10" fill="#FEFEFE" mask="url(#mask-2)" points="20.4201393 27.2493476 19.6344836 26.0495536 18.4421066 26.0495536 19.6287049 27.9427382 21.2115738 27.9427382 22.3966967 26.0495536 21.2064098 26.0495536"></polygon>
                <polygon id="Fill-11" fill="#FEFEFE" mask="url(#mask-2)" points="22.6191393 27.9426781 23.7913525 27.9426781 23.7913525 26.0494936 22.6191393 26.0494936"></polygon>
                <path d="M24.2698033,27.9426781 L29.3425082,27.9426781 C29.6659918,27.9426781 29.9286148,27.751485 29.9286148,27.5164292 L29.9286148,27.091382 L24.2698033,27.0907811 L24.2698033,27.9426781 Z" id="Fill-12" fill="#FEFEFE" mask="url(#mask-2)"></path>
                <path d="M29.9286639,24.3558421 L29.9286639,23.5039451 L24.996123,23.5039451 L24.9928033,23.5045459 C24.9875164,23.5045459 24.9797705,23.5039451 24.9732541,23.5039451 C24.6486639,23.5039451 24.3865328,23.6930953 24.3865328,23.9295931 L24.3865328,25.6099536 C24.3865328,25.8450094 24.6486639,26.0368034 24.9732541,26.0368034 L28.7558361,26.0368034 L28.7558361,26.4108979 L29.9286639,26.4108979 L29.9286639,25.798503 C29.9286639,25.5634472 29.665918,25.3728549 29.3424344,25.3728549 L25.5593607,25.3728549 L25.5593607,24.3558421 L29.9286639,24.3558421 Z" id="Fill-13" fill="#FEFEFE" mask="url(#mask-2)"></path>
                <path d="M26.7673648,13.3455811 C24.1139631,17.3231433 16.2229795,19.959109 9.53777459,19.1034867 C5.93715984,18.6427485 3.27060246,17.2670232 2.40269262,15.4249116 C2.24408607,15.0865082 2.15986475,14.7360876 2.13404508,14.377976 C3.72564344,15.7421648 6.16634016,16.7464395 9.27761066,17.1439674 C13.1544959,17.6397957 17.3109713,17.1003451 20.871873,15.8362592 L20.8745779,15.8380618 C20.9924877,15.7969631 21.1073238,15.7523794 21.2259713,15.7087571 C21.3596189,15.6574438 21.4932664,15.6097356 21.6255615,15.5580618 C21.8745369,15.4600017 22.1230205,15.3566541 22.3654795,15.2515039 C22.4873238,15.1980275 22.6048648,15.1439502 22.7240041,15.0903536 C22.8962582,15.0120017 23.0658074,14.931006 23.2332664,14.8482077 C23.3408484,14.7965339 23.4470779,14.746903 23.5526926,14.6927056 C23.8037582,14.5640017 24.0513811,14.4308515 24.2926107,14.2950575 C24.3688402,14.2526369 24.4406434,14.2078129 24.5150287,14.1641906 C24.7040041,14.0531519 24.8897828,13.9411519 25.0710123,13.8261476 C25.149332,13.7755554 25.2281434,13.726285 25.3037582,13.675933 C25.5437582,13.5182678 25.7783484,13.3566369 26.0039631,13.1908 C26.0071598,13.1887571 26.0078975,13.186594 26.0112172,13.1852721 C26.1676107,13.0702678 26.3201926,12.951418 26.4687172,12.8325682 C26.4831025,12.8215124 26.4955205,12.8100961 26.5086762,12.8006026 C26.6461352,12.6872807 26.7797828,12.5752807 26.9108484,12.4618386 C26.9355615,12.4399674 26.9584303,12.4182163 26.9811762,12.3973064 C27.099209,12.2921562 27.2165041,12.1859245 27.3281434,12.0781305 C27.3625697,12.0461648 27.3912172,12.0144395 27.4225697,11.9817528 C27.2954385,12.4254266 27.0776926,12.8795554 26.7673648,13.3455811 M10.7174877,3.04662833 C10.8235943,2.90326352 11.144373,2.79751245 11.3134303,2.75136652 C11.3628566,2.73706609 11.4146189,2.7268515 11.4639221,2.71351245 C11.6107254,2.6755382 11.7576516,2.64068841 11.904332,2.60415622 C12.144209,2.5461133 12.3854385,2.48819056 12.6280205,2.43699742 C12.786627,2.40334936 12.9462172,2.37258541 13.1065451,2.34230215 C13.3422418,2.29687725 13.579291,2.25313476 13.8184303,2.21359828 C13.9831844,2.18716052 14.149168,2.16264549 14.3133074,2.13789013 C14.5503566,2.10436223 14.7888811,2.07516052 15.0271598,2.04776137 C15.1944959,2.02889442 15.3615861,2.01014764 15.5300287,1.99452532 C15.7699057,1.97313476 16.009168,1.95607039 16.2502746,1.94068841 C16.4158893,1.93083433 16.5815041,1.91905751 16.7471189,1.91280858 C16.9954795,1.90283433 17.2426107,1.89946953 17.4890041,1.89658541 C17.64675,1.89538369 17.8046189,1.89165837 17.961627,1.89261974 C18.2315041,1.89658541 18.5001516,1.90932361 18.7680615,1.92242232 C18.8998648,1.92831073 19.0327746,1.93083433 19.1631025,1.93936652 C19.5615861,1.96652532 19.9578566,2.00305751 20.3490861,2.05340944 C21.6725287,2.2228515 22.9926516,2.52255966 24.2247418,3.03112618 C24.7437172,3.24479142 25.2484303,3.49607039 25.7184713,3.79758112 C25.8963811,3.91342661 26.2171598,4.06628498 26.3358074,4.24209614 C26.7635533,4.86686867 25.3631434,4.97562403 24.9647828,5.06923777 C24.7261352,5.12619914 24.486873,5.18255966 24.2477336,5.23867983 C23.7371189,5.35921202 23.2260123,5.48010472 22.7149057,5.59919485 C21.9072418,5.78954678 21.1008074,5.97989871 20.2936352,6.16928927 C19.41675,6.37598455 18.5398648,6.5819588 17.6637172,6.78841373 C17.1362582,6.91303176 16.6083074,7.03740944 16.0820779,7.16142661 C15.3772008,7.32774421 14.8610533,7.52326352 14.3065451,6.98225064 C14.0806844,6.76233648 13.8572828,6.53989871 13.6337582,6.31782146 C13.4409713,6.12614764 13.2476926,5.93519485 13.0529385,5.74412189 C12.7140861,5.40667983 12.3619549,5.07584721 12.0173238,4.73888584 C11.6723238,4.40288584 11.3334713,4.06063691 11.0147828,3.70288584 C10.7949467,3.45965837 10.5026926,3.33492017 10.7174877,3.04662833 M3.47937295,12.5524481 C3.57416803,12.4381648 4.12756967,12.3594524 4.28445492,12.3105425 C4.69978279,12.1795554 5.11769262,12.0496498 5.53252869,11.9180618 C8.06666803,11.1207227 10.629209,10.3815468 13.1436762,9.52340086 C14.2922828,9.13176137 15.3387172,10.6117957 16.1179795,11.3669545 C16.7809303,12.0097528 18.631832,13.8003107 18.6553156,14.2538386 C18.6898648,14.8941133 16.8448648,15.0205339 16.3585943,15.110182 C14.1063811,15.5233322 11.7983484,15.5650318 9.52879918,15.2738558 C8.23289754,15.1081391 6.94265164,14.8176841 5.73170902,14.3301476 C5.3535123,14.1764481 2.95892213,13.175418 3.47937295,12.5524481 M29.776832,6.28092876 C29.774127,6.26783004 29.7727746,6.25437082 29.7701926,6.2404309 C29.7473238,6.11833648 29.7200287,5.99684292 29.6886762,5.87763262 C29.686709,5.86861974 29.6848648,5.85864549 29.6835123,5.85059399 C29.6495779,5.72741803 29.611832,5.60616481 29.5694139,5.48455107 C29.566832,5.478903 29.5654795,5.47325494 29.5628975,5.46820773 C29.5198648,5.34383004 29.4690861,5.22185579 29.4162172,5.10036223 C29.4135123,5.09759828 29.411668,5.09543519 29.411668,5.09315193 C29.3563402,4.96997597 29.294373,4.84740086 29.2284713,4.72638798 C29.156791,4.59612189 29.0778566,4.4675382 28.9949877,4.34147811 C28.9605615,4.29016481 28.9246598,4.24077425 28.8881434,4.19030215 C28.8476926,4.13346094 28.809209,4.07529785 28.7635943,4.018697 C27.3149877,2.11373562 24.4771598,0.679727039 20.5994139,0.183177682 C16.7230205,-0.313491845 12.5638402,0.225838627 8.99925,1.48788155 C8.96494672,1.50001888 8.93187295,1.5139588 8.89744672,1.52705751 C8.5049877,1.66873991 8.11707787,1.81631073 7.7390041,1.97589871 C7.53392213,2.06242232 7.3335123,2.15062833 7.13420902,2.24171845 C7.13002869,2.24243948 7.12597131,2.24472275 7.12154508,2.24592446 C6.92740574,2.33545236 6.73412705,2.42786438 6.54502869,2.52159828 C6.53703689,2.52580429 6.52929098,2.52928927 6.51994672,2.53301459 C6.33662705,2.62506609 6.15392213,2.71904034 5.97453689,2.8155382 C5.95855328,2.82262833 5.94490574,2.83104034 5.92867623,2.8388515 C5.75802049,2.93186438 5.58834836,3.02571845 5.4212582,3.12221631 C5.40060246,3.13507468 5.38129918,3.14745236 5.35916803,3.16019056 C5.20006967,3.25224206 5.04318443,3.34681717 4.8894959,3.44295451 C4.86084836,3.46158112 4.83343033,3.47984721 4.80490574,3.4981133 C4.65933197,3.59028498 4.51621721,3.682697 4.37580738,3.77799313 C4.34088934,3.80310901 4.3044959,3.82894592 4.26847131,3.85418197 C4.13912705,3.94310901 4.01088934,4.03335794 3.88597131,4.12444807 C3.84121721,4.15809614 3.79670902,4.19294592 3.75170902,4.22683433 C3.63982377,4.31275708 3.52609426,4.39831931 3.41789754,4.48544378 C3.36478279,4.526903 3.31535656,4.57040515 3.26384016,4.61282575 C3.16584836,4.6940618 3.06687295,4.77517768 2.97158607,4.858697 C2.91441393,4.90964979 2.85810246,4.96276567 2.80068443,5.01540086 C2.71744672,5.09026781 2.63297951,5.16597597 2.55207787,5.24216481 C2.48629918,5.3075382 2.42273361,5.37435365 2.35732377,5.43972704 C2.29093033,5.50618197 2.22330738,5.57143519 2.15986475,5.63909185 C2.08240574,5.72189013 2.00925,5.80589013 1.93535656,5.88976996 C1.88826639,5.94204464 1.83896311,5.99323777 1.79371721,6.04659399 C1.69793852,6.1611176 1.60695492,6.27612189 1.51658607,6.39100601 C1.49715984,6.41684292 1.47638115,6.44135794 1.45707787,6.4661133 C1.34912705,6.60851674 1.24609426,6.75272275 1.15006967,6.89837082 C1.05256967,7.04401888 0.961954918,7.18942661 0.877118852,7.33459399 C0.856463115,7.37040515 0.839987705,7.40561545 0.819946721,7.44070558 C0.75982377,7.54994163 0.69970082,7.65821631 0.646463115,7.76613047 C0.614864754,7.83186438 0.58720082,7.89543519 0.558061475,7.95996738 C0.522651639,8.03892017 0.484168033,8.11823348 0.452077869,8.19622489 C0.421094262,8.27421631 0.394659836,8.35076567 0.366012295,8.42803605 C0.343143443,8.49304893 0.31720082,8.55794163 0.295069672,8.62355536 C0.266422131,8.71092017 0.244782787,8.79696309 0.22129918,8.8851691 C0.20629918,8.93828498 0.189086066,8.99296309 0.175930328,9.04692017 C0.153184426,9.14077425 0.136831967,9.23450815 0.118758197,9.32824206 C0.110151639,9.37378712 0.099454918,9.42005322 0.0923237705,9.46559828 C0.0767090164,9.56630215 0.0666270492,9.66616481 0.0562991803,9.76578712 C0.0529795082,9.8036412 0.0465860656,9.84185579 0.04425,9.87970987 C0.0213811475,10.227727 0.0213811475,11.4091348 0.00994672131,11.7885167 C-0.0222663934,12.902388 0.0362581967,12.0724824 0.00994672131,13.1438129 C-0.03825,15.1113837 0.812938525,16.5685854 1.32047951,17.2224395 C3.14863525,19.5882592 6.41347131,20.5677785 9.29273361,20.9373064 C16.7536352,21.891109 25.2888811,18.9451004 28.3515861,14.354903 C28.9096598,13.5189888 29.3222828,12.7333064 29.5512172,11.7528258 C29.6900287,11.1549717 29.9195779,10.011418 29.9195779,9.20446524 C29.9195779,7.91862833 29.9944549,7.35081717 29.776832,6.28092876" id="Fill-14" fill="#FEFEFE" mask="url(#mask-2)"></path>
            </g>
        </g>
    </g>
</svg>